{
     "asset": {
          "generator": "Khronos glTF Blender I/O v3.2.40",
          "version": "2.0"
     },
     "scene": 0,
     "scenes": [
          {
               "name": "Scene",
               "nodes": [0]
          }
     ],
     "nodes": [
          {
               "mesh": 0,
               "name": "Plane"
          }
     ],
     "meshes": [
          {
               "name": "Plane.001",
               "primitives": [
                    {
                         "attributes": {
                              "POSITION": 0,
                              "NORMAL": 1,
                              "TEXCOORD_0": 2
                         },
                         "indices": 3
                    }
               ]
          }
     ],
     "accessors": [
          {
               "bufferView": 0,
               "componentType": 5126,
               "count": 110,
               "max": [3.0468177795410156, 59.225685119628906, 0.3177976608276367],
               "min": [-5.294925212860107, -0.6335525512695312, -7.493586540222168],
               "type": "VEC3"
          },
          {
               "bufferView": 1,
               "componentType": 5126,
               "count": 110,
               "type": "VEC3"
          },
          {
               "bufferView": 2,
               "componentType": 5126,
               "count": 110,
               "type": "VEC2"
          },
          {
               "bufferView": 3,
               "componentType": 5123,
               "count": 162,
               "type": "SCALAR"
          }
     ],
     "bufferViews": [
          {
               "buffer": 0,
               "byteLength": 1320,
               "byteOffset": 0
          },
          {
               "buffer": 0,
               "byteLength": 1320,
               "byteOffset": 1320
          },
          {
               "buffer": 0,
               "byteLength": 880,
               "byteOffset": 2640
          },
          {
               "buffer": 0,
               "byteLength": 324,
               "byteOffset": 3520
          }
     ],
     "buffers": [
          {
               "byteLength": 3844,
               "uri": "data:application/octet-stream;base64,"
          }
     ]
}
