{
    "asset" : {
        "generator" : "Khronos glTF Blender I/O v3.2.40",
        "version" : "2.0"
    },
    "scene" : 0,
    "scenes" : [
        {
            "name" : "Scene",
            "nodes" : [
                0,
                1
            ]
        }
    ],
    "nodes" : [
        {
            "mesh" : 0,
            "name" : "Cube",
            "scale" : [
                0.2554986774921417,
                0.2554986774921417,
                0.2554986774921417
            ],
            "translation" : [
                -0.041566263884305954,
                0.2555251121520996,
                -0.0033024754375219345
            ]
        },
        {
            "mesh" : 1,
            "name" : "Plane",
            "rotation" : [
                -0.27059805393218994,
                0.27059805393218994,
                0.6532815098762512,
                0.6532815098762512
            ],
            "scale" : [
                0.473133385181427,
                0.4731333553791046,
                0.473133385181427
            ],
            "translation" : [
                -0.07782391458749771,
                2.1508700847625732,
                -0.005569169297814369
            ]
        }
    ],
    "materials" : [
        {
            "doubleSided" : true,
            "name" : "Material",
            "pbrMetallicRoughness" : {
                "baseColorFactor" : [
                    0.800000011920929,
                    0.800000011920929,
                    0.800000011920929,
                    1
                ],
                "metallicFactor" : 0,
                "roughnessFactor" : 0.4000000059604645
            }
        }
    ],
    "meshes" : [
        {
            "name" : "Cube",
            "primitives" : [
                {
                    "attributes" : {
                        "POSITION" : 0,
                        "NORMAL" : 1,
                        "TEXCOORD_0" : 2
                    },
                    "indices" : 3,
                    "material" : 0
                }
            ]
        },
        {
            "name" : "Plane",
            "primitives" : [
                {
                    "attributes" : {
                        "POSITION" : 4,
                        "NORMAL" : 5,
                        "TEXCOORD_0" : 6
                    },
                    "indices" : 7
                }
            ]
        }
    ],
    "accessors" : [
        {
            "bufferView" : 0,
            "componentType" : 5126,
            "count" : 24,
            "max" : [
                0.08238179981708527,
                8.318588256835938,
                0.2041870355606079
            ],
            "min" : [
                -0.076256163418293,
                -1,
                -0.22561901807785034
            ],
            "type" : "VEC3"
        },
        {
            "bufferView" : 1,
            "componentType" : 5126,
            "count" : 24,
            "type" : "VEC3"
        },
        {
            "bufferView" : 2,
            "componentType" : 5126,
            "count" : 24,
            "type" : "VEC2"
        },
        {
            "bufferView" : 3,
            "componentType" : 5123,
            "count" : 36,
            "type" : "SCALAR"
        },
        {
            "bufferView" : 4,
            "componentType" : 5126,
            "count" : 120,
            "max" : [
                1,
                0,
                1
            ],
            "min" : [
                -1,
                -0.0488639660179615,
                -1
            ],
            "type" : "VEC3"
        },
        {
            "bufferView" : 5,
            "componentType" : 5126,
            "count" : 120,
            "type" : "VEC3"
        },
        {
            "bufferView" : 6,
            "componentType" : 5126,
            "count" : 120,
            "type" : "VEC2"
        },
        {
            "bufferView" : 7,
            "componentType" : 5123,
            "count" : 228,
            "type" : "SCALAR"
        }
    ],
    "bufferViews" : [
        {
            "buffer" : 0,
            "byteLength" : 288,
            "byteOffset" : 0
        },
        {
            "buffer" : 0,
            "byteLength" : 288,
            "byteOffset" : 288
        },
        {
            "buffer" : 0,
            "byteLength" : 192,
            "byteOffset" : 576
        },
        {
            "buffer" : 0,
            "byteLength" : 72,
            "byteOffset" : 768
        },
        {
            "buffer" : 0,
            "byteLength" : 1440,
            "byteOffset" : 840
        },
        {
            "buffer" : 0,
            "byteLength" : 1440,
            "byteOffset" : 2280
        },
        {
            "buffer" : 0,
            "byteLength" : 960,
            "byteOffset" : 3720
        },
        {
            "buffer" : 0,
            "byteLength" : 456,
            "byteOffset" : 4680
        }
    ],
    "buffers" : [
        {
            "byteLength" : 5136,
            "uri" : "data:application/octet-stream;base64,"
        }
    ]
}
